# File created by Blade
# Date/Time:  Tue Apr 07 20:13:55 2015
# Frame Rate: 120.000 fps
#------------------------------------------------------
:FULLY-SPECIFIED
:DEGREES
3394
root 4.452736 33.104117 -11.102367 11.642492 -32.050133 -26.200068
Spine 18.180574 -11.415240 25.301437
Head -16.753323 12.827001 -2.600604
LeftShoulder 4.516051 24.877288 30.182634
LeftArm 86.918147 18.067989 -58.138108
LeftForeArm -47.439036 -0.000000 54.514062
LeftHand 4.252292 -0.000000 -23.454422
LeftHandThumb1 -26.253704 0.000000 33.147579
RightShoulder 6.701064 0.910204 -11.898332
RightArm 28.885884 -23.395662 67.444688
RightForeArm 31.425589 -0.000000 32.470621
RightHand 10.413548 -0.000000 17.662891
RightHandThumb1 -24.326973 -0.000000 -32.862282
LeftUpLeg -10.889202 5.889066 13.446278
LeftLeg 23.258617 -0.000000 -0.000000
LeftFoot -9.422981 19.987475 -1.173611
LeftToeBase -18.924301 -0.000000 0.000000
RightUpLeg -113.891929 -5.168744 11.319061
RightLeg 130.000441 -0.000000 -0.000000
RightFoot 44.144937 0.828581 0.339914
RightToeBase 34.297971 -0.000000 -0.000000
3395
root 4.443258 33.144663 -11.114957 11.714459 -31.583397 -26.145827
Spine 17.976575 -11.608553 25.502877
Head -16.970922 12.726606 -2.810262
LeftShoulder 4.440895 24.924000 30.058222
LeftArm 87.002302 18.086492 -58.033187
LeftForeArm -47.682646 0.000000 54.312509
LeftHand 4.194387 0.000000 -23.349840
LeftHandThumb1 -26.253704 0.000000 33.147579
RightShoulder 6.842766 0.630211 -11.996872
RightArm 27.889396 -21.953989 69.014321
RightForeArm 30.450248 0.000000 33.051731
RightHand 10.632973 -0.000000 17.819828
RightHandThumb1 -24.326973 -0.000000 -32.862282
LeftUpLeg -11.045722 6.323522 13.358273
LeftLeg 22.929249 -0.000000 -0.000000
LeftFoot -8.885135 20.055369 -0.680693
LeftToeBase -18.706349 -0.000000 0.000000
RightUpLeg -114.038606 -5.163558 11.784441
RightLeg 130.436599 -0.000000 -0.000000
RightFoot 44.518110 1.591863 -0.212254
RightToeBase 33.126106 -0.000000 -0.000000
3396
root 4.434795 33.184914 -11.097107 11.541801 -31.028328 -26.022303
Spine 17.846884 -11.896573 25.720708
Head -17.056103 12.500577 -3.046510
LeftShoulder 4.598130 24.787715 29.919900
LeftArm 86.828067 18.132760 -58.060212
LeftForeArm -47.933120 -0.000000 54.128974
LeftHand 4.054609 -0.000000 -23.503901
LeftHandThumb1 -26.253704 0.000000 33.147579
RightShoulder 6.773893 -0.002170 -11.979785
RightArm 27.315421 -21.078180 69.474871
RightForeArm 30.310951 -0.000000 34.134303
RightHand 9.934096 0.000000 17.990680
RightHandThumb1 -24.326973 -0.000000 -32.862282
LeftUpLeg -10.958270 6.653278 13.195923
LeftLeg 22.543904 -0.000000 -0.000000
LeftFoot -8.426137 20.188673 -0.268529
LeftToeBase -18.369661 -0.000000 0.000000
RightUpLeg -113.783947 -5.623972 11.931784
RightLeg 130.969423 -0.000000 -0.000000
RightFoot 44.308680 1.679062 1.115113
RightToeBase 35.127696 -0.000000 -0.000000
3397
root 4.430247 33.215285 -11.098816 11.509752 -30.623659 -25.798146
Spine 17.597777 -12.044240 25.750586
Head -17.110036 12.334578 -3.195052
LeftShoulder 4.609062 24.907538 29.753281
LeftArm 86.914840 18.082473 -57.938586
LeftForeArm -48.139378 -0.000000 53.917793
LeftHand 3.768152 -0.000000 -23.380596
LeftHandThumb1 -26.253704 0.000000 33.147579
RightShoulder 6.585376 -0.368315 -11.856892
RightArm 26.821140 -20.523302 69.810843
RightForeArm 32.350465 -0.000000 34.849546
RightHand 8.986320 -0.000000 19.455393
RightHandThumb1 -24.326973 -0.000000 -32.862282
LeftUpLeg -11.079073 7.167961 12.902907
LeftLeg 22.205321 -0.000000 -0.000000
LeftFoot -7.975757 20.274950 -0.161440
LeftToeBase -18.467322 -0.000000 0.000000
RightUpLeg -113.810862 -5.727077 12.001927
RightLeg 131.637174 -0.000000 -0.000000
RightFoot 44.248146 2.328418 1.456541
RightToeBase 35.267986 -0.000000 -0.000000
